<svg width="25" height="25" viewBox="0 0 25 25" fill="none" xmlns="http://www.w3.org/2000/svg">
<path d="M12.5 5.76172C12.2151 5.76172 11.9418 5.64854 11.7404 5.44707C11.539 5.24565 11.4258 4.97241 11.4258 4.6875V2.34375C11.4258 2.05885 11.539 1.78562 11.7404 1.58416C11.9418 1.38271 12.2151 1.26953 12.5 1.26953C12.7849 1.26953 13.0582 1.38271 13.2596 1.58416C13.461 1.78562 13.5742 2.05885 13.5742 2.34375V4.6875C13.5742 4.97241 13.461 5.24565 13.2596 5.44707C13.0582 5.64854 12.7849 5.76172 12.5 5.76172ZM12.5 23.7305C12.2151 23.7305 11.9418 23.6173 11.7404 23.4158C11.539 23.2144 11.4258 22.9412 11.4258 22.6562V20.3125C11.4258 20.0276 11.539 19.7543 11.7404 19.5529C11.9418 19.3515 12.2151 19.2383 12.5 19.2383C12.7849 19.2383 13.0582 19.3515 13.2596 19.5529C13.461 19.7543 13.5742 20.0276 13.5742 20.3125V22.6562C13.5742 22.9412 13.461 23.2144 13.2596 23.4158C13.0582 23.6173 12.7849 23.7305 12.5 23.7305ZM18.0244 8.0498C17.812 8.04976 17.6043 7.98677 17.4277 7.86875C17.2511 7.75078 17.1135 7.58306 17.0322 7.38682C16.9508 7.19058 16.9295 6.97466 16.9709 6.76631C17.0123 6.55796 17.1145 6.36655 17.2646 6.21631L18.9219 4.55908C19.1242 4.36201 19.396 4.25255 19.6785 4.25441C19.9609 4.25627 20.2312 4.3693 20.431 4.56902C20.6307 4.76874 20.7437 5.03911 20.7456 5.32153C20.7475 5.60396 20.638 5.87578 20.4409 6.07813L18.7837 7.73535C18.6841 7.8352 18.5657 7.91436 18.4354 7.96831C18.3051 8.02227 18.1654 8.04995 18.0244 8.0498ZM5.31836 20.7559C5.10591 20.7558 4.89819 20.6928 4.72155 20.5747C4.54491 20.4566 4.40724 20.2889 4.32597 20.0925C4.2447 19.8962 4.22346 19.6802 4.26496 19.4719C4.30645 19.2635 4.40881 19.0721 4.55908 18.9219L6.21631 17.2646C6.31558 17.1627 6.43408 17.0815 6.56494 17.0258C6.69585 16.9701 6.83652 16.9409 6.97876 16.94C7.121 16.939 7.26206 16.9664 7.39365 17.0204C7.52524 17.0744 7.64482 17.154 7.74541 17.2546C7.846 17.3552 7.92563 17.4748 7.97964 17.6063C8.03364 17.7379 8.06099 17.879 8.06001 18.0212C8.05908 18.1635 8.02993 18.3042 7.97417 18.435C7.91846 18.5659 7.83726 18.6844 7.73535 18.7837L6.07813 20.4409C5.97847 20.5409 5.86006 20.6202 5.72969 20.6742C5.59927 20.7283 5.45952 20.756 5.31836 20.7559ZM22.6562 13.5742H20.3125C20.0276 13.5742 19.7543 13.461 19.5529 13.2596C19.3515 13.0582 19.2383 12.7849 19.2383 12.5C19.2383 12.2151 19.3515 11.9418 19.5529 11.7404C19.7543 11.539 20.0276 11.4258 20.3125 11.4258H22.6562C22.9412 11.4258 23.2144 11.539 23.4158 11.7404C23.6173 11.9418 23.7305 12.2151 23.7305 12.5C23.7305 12.7849 23.6173 13.0582 23.4158 13.2596C23.2144 13.461 22.9412 13.5742 22.6562 13.5742ZM4.6875 13.5742H2.34375C2.05885 13.5742 1.78562 13.461 1.58416 13.2596C1.38271 13.0582 1.26953 12.7849 1.26953 12.5C1.26953 12.2151 1.38271 11.9418 1.58416 11.7404C1.78562 11.539 2.05885 11.4258 2.34375 11.4258H4.6875C4.97241 11.4258 5.24565 11.539 5.44707 11.7404C5.64854 11.9418 5.76172 12.2151 5.76172 12.5C5.76172 12.7849 5.64854 13.0582 5.44707 13.2596C5.24565 13.461 4.97241 13.5742 4.6875 13.5742ZM19.6816 20.7559C19.5405 20.756 19.4007 20.7283 19.2703 20.6742C19.1399 20.6202 19.0215 20.5409 18.9219 20.4409L17.2646 18.7837C17.0676 18.5813 16.9581 18.3095 16.96 18.0271C16.9618 17.7447 17.0749 17.4743 17.2746 17.2746C17.4743 17.0749 17.7447 16.9618 18.0271 16.96C18.3095 16.9581 18.5813 17.0676 18.7837 17.2646L20.4409 18.9219C20.5912 19.0721 20.6936 19.2635 20.7351 19.4719C20.7765 19.6802 20.7553 19.8962 20.674 20.0925C20.5928 20.2889 20.4551 20.4566 20.2785 20.5747C20.1018 20.6928 19.8941 20.7558 19.6816 20.7559ZM6.97559 8.0498C6.83452 8.0501 6.69482 8.02246 6.5645 7.96846C6.43418 7.9145 6.31587 7.83525 6.21631 7.73535L4.55908 6.07813C4.36201 5.87578 4.25255 5.60396 4.25441 5.32153C4.25627 5.03911 4.3693 4.76874 4.56902 4.56902C4.76874 4.3693 5.03911 4.25627 5.32153 4.25441C5.60396 4.25255 5.87578 4.36201 6.07813 4.55908L7.73535 6.21631C7.8855 6.36655 7.9877 6.55796 8.0291 6.76631C8.07046 6.97466 8.04917 7.19058 7.96782 7.38682C7.88652 7.58306 7.74888 7.75078 7.57227 7.86875C7.39565 7.98677 7.18799 8.04976 6.97559 8.0498ZM12.5 17.4805C11.5149 17.4805 10.5521 17.1884 9.73301 16.6411C8.91396 16.0938 8.27559 15.316 7.89863 14.406C7.52168 13.4959 7.42305 12.4945 7.61523 11.5284C7.80742 10.5623 8.28174 9.6748 8.97827 8.97827C9.6748 8.28174 10.5623 7.80742 11.5284 7.61523C12.4945 7.42305 13.4959 7.52168 14.406 7.89863C15.316 8.27559 16.0938 8.91396 16.6411 9.73301C17.1884 10.5521 17.4805 11.5149 17.4805 12.5C17.4789 13.8204 16.9537 15.0863 16.02 16.02C15.0863 16.9537 13.8204 17.4789 12.5 17.4805Z" fill="white"/>
</svg>
